HIERARCHY
ROOT Hips
{
    OFFSET 0.11543774995217591 0.8108526109557606 -0.17089050816145607
    CHANNELS 6 Xposition Yposition Zposition Zrotation Xrotation Yrotation
    JOINT RightUpLeg
    {
        OFFSET -0.11543774995217591 0.0 0.0
        CHANNELS 3 Zrotation Xrotation Yrotation
        JOINT RightLeg
        {
            OFFSET 0.0 -0.3836263405521204 0.0
            CHANNELS 3 Zrotation Xrotation Yrotation
            JOINT RightFoot
            {
                OFFSET 0.0 -0.42722627040364014 0.0
                CHANNELS 3 Zrotation Xrotation Yrotation
                End Site
                {
                    OFFSET 0.0 0.0 0.17089050816145607
                }
            }
        }
    }
    JOINT LeftUpLeg
    {
        OFFSET 0.11543774995217591 0.0 0.0
        CHANNELS 3 Zrotation Xrotation Yrotation
        JOINT LeftLeg
        {
            OFFSET 0.0 -0.3836263405521204 0.0
            CHANNELS 3 Zrotation Xrotation Yrotation
            JOINT LeftFoot
            {
                OFFSET 0.0 -0.42722627040364014 0.0
                CHANNELS 3 Zrotation Xrotation Yrotation
                End Site
                {
                    OFFSET 0.0 0.0 0.17089050816145607
                }
            }
        }
    }
    JOINT Spine
    {
        OFFSET 0.0 0.22190039542260495 0.0
        CHANNELS 3 Zrotation Xrotation Yrotation
        JOINT Spine3
        {
            OFFSET 0.0 0.2522533749206219 0.0
            CHANNELS 3 Zrotation Xrotation Yrotation
            JOINT Neck
            {
                OFFSET 0.0 0.13990424923396272 0.0
                CHANNELS 3 Zrotation Xrotation Yrotation
                End Site
                {
                    OFFSET 0.0 0.05596169969358508 0.0
                }
            }
            JOINT LeftArm
            {
                OFFSET 0.16194419779143654 0.0 0.0
                CHANNELS 3 Zrotation Xrotation Yrotation
                JOINT LeftForeArm
                {
                    OFFSET 0.2873108359234604 0.0 0.0
                    CHANNELS 3 Zrotation Xrotation Yrotation
                    JOINT LeftHand
                    {
                        OFFSET 0.2399145822493774 0.0 0.0
                        CHANNELS 3 Zrotation Xrotation Yrotation
                        End Site
                        {
                            OFFSET 0.09596583289975096 0.0 0.0
                        }
                    }
                }
            }
            JOINT RightArm
            {
                OFFSET -0.16194419779143654 0.0 0.0
                CHANNELS 3 Zrotation Xrotation Yrotation
                JOINT RightForeArm
                {
                    OFFSET -0.2873108359234604 0.0 0.0
                    CHANNELS 3 Zrotation Xrotation Yrotation
                    JOINT RightHand
                    {
                        OFFSET -0.2399145822493774 0.0 0.0
                        CHANNELS 3 Zrotation Xrotation Yrotation
                        End Site
                        {
                            OFFSET -0.09596583289975096 0.0 0.0
                        }
                    }
                }
            }
        }
    }
}
MOTION
Frames: 5
Frame Time: 0.03333333333333333
-0.0 0.8442670440891085 0.0 -5.851799986389066 7.621255428121354 -111.15067671355112 0.0 0.0 -2.435112177995505e-15 2.54067378955766 21.317855459957723 -4.934583564607077 7.951386703658792e-16 -6.207055731633035e-32 -8.94531004161614e-15 17.438569048661005 20.81962109061032 -10.605155336261216 4.732323514856853 9.990278712460519 1.468383553352186 0.0 0.0 -2.683593012484842e-15 -0.7137587820704782 -5.536286796140952 0.23676690325410535 1.5752166598155761e-15 -2.1834489937787115e-16 -15.783264650033093 -22.823681274873813 -15.484033712588106 150.56008302959728 -167.3388499908595 21.084583002033078 -179.2162530378638 -4.2503241454163585e-15 -5.702138639825253e-15 53.4688513402287 0.0 0.0 0.0 -147.90141166762257 -1.8667446007989386 143.39697256290938 -4.766329621195856e-15 -5.0488436009487705e-15 -60.22153680986552 0.0 0.0 0.0
-0.0 0.8442670440891085 0.0 -8.585609608255162 9.402264410990178 -108.35687905901432 -1.5902773407317584e-15 2.0000512913039782e-32 -1.441188840038156e-15 4.872415761483227 26.097445070615407 -4.881585646507302 7.951386703658791e-16 -4.1380371544220234e-32 -5.9635400277440935e-15 18.88257733279049 20.22996693251875 -9.538962147347338 5.115385179877277 10.999928470648515 -0.25488677770174056 0.0 0.0 1.6896696745274934e-15 -3.1991946089374665 -6.797413446105051 -0.23012575567657703 -0.0 0.0 -18.348785289485196 -24.13299813608737 -15.396672876121201 152.91542608982175 -167.31659926417987 14.900986599450217 -176.98237349666874 2.868619622567111e-15 1.3736628199097543e-15 51.17565006932557 0.0 0.0 2.981770013872047e-16 -146.23858148759473 -4.845317674828346 147.98236486980707 -3.0441358833128353e-15 5.6417368386124124e-15 -63.809924979466466 7.951386703658794e-16 0.0 0.0
-0.0 0.8442670440891085 0.0 -10.347399931893824 8.44793091418036 -106.288430159298 0.0 0.0 -5.218097524276082e-15 7.286424602895225 27.70349796048768 -5.67317333313035 0.0 0.0 7.951386703658792e-16 16.86573117453703 17.917609612676276 -7.574872803995538 5.758931595553749 11.529393265892509 -0.7953597791444298 -1.5902773407317588e-15 -7.58640144977371e-32 5.466578358765421e-15 -3.742414377741196 -6.106999585475589 -0.31053899386489103 -1.5652818534649395e-15 2.8084646990524485e-16 -20.343818972056756 -26.595196633168204 -14.132512490277502 154.64636406741522 -168.94408822608088 14.20029483282389 -177.17039853833745 7.26472456841663e-15 6.955793108110585e-15 50.64106707954639 0.0 0.0 -1.987846675914698e-16 -150.28232852165314 -7.476108204651806 149.98914598927465 -2.624890281667226e-16 -4.628979010956251e-15 -68.41854467137016 1.5902773407317584e-15 0.0 0.0
-0.0 0.8442670440891085 0.0 -11.24007696823141 8.522637499994461 -103.79931746059172 0.0 0.0 1.4908850069360235e-16 9.649651111908286 26.6524938213063 -5.801780282816595 0.0 0.0 -2.484808344893372e-15 17.66096905484388 14.861143687413637 -6.189507617757066 4.119910661280276 13.24552960197305 -1.8572004441781402 0.0 0.0 -8.845917707820405e-15 -4.6287732566998265 -6.132419318353292 -0.5173846123576652 -1.201195425658441e-15 -6.246666461121101e-15 -21.769522379165405 -27.615526407684563 -12.709937352220866 155.55703824824744 -168.98744564525833 11.360727455557312 -179.52685709703346 -1.4094190777293194e-15 2.8512218337253466e-15 52.60831633754195 0.0 0.0 0.0 -153.08428544179344 -9.304130314626944 151.38416177619672 2.3138633022474484e-15 -8.317958049536894e-16 -67.61784055548985 3.975693351829396e-16 0.0 0.0
-0.0 0.8442670440891085 0.0 -11.146614108376355 7.943468148220774 -100.36951568080147 0.0 0.0 2.981770013872047e-16 9.391187666858498 26.895633532905563 -5.19239952339493 1.590277340731758e-15 -1.5902773407317584e-15 -6.559894030518502e-15 19.422545038766852 8.619940068693595 -4.178223892706461 2.622121832460459 16.83104435075111 -3.8033775490872483 0.0 0.0 -4.969616689786745e-16 -3.7927788439841237 -5.009952108756833 -0.3980185303807431 3.111645528989249e-15 -6.584756515625393e-16 -23.89691783497329 -29.862565702318836 -11.03831434182936 154.3795234774457 -170.14244762445583 12.368125160288812 179.78848855544308 5.6639494492807854e-15 2.895408254997878e-15 54.15219296861642 0.0 0.0 0.0 -155.12005318229373 -7.868245576770058 152.99195661406603 -1.5249065092952638e-15 6.014179367391786e-16 -71.12070173962171 3.975693351829396e-16 3.1805546814635164e-15 -3.1805546814635164e-15
